<mxfile host="65bd71144e">
    <diagram id="fDlTkcSAq6EhD93O3-o5" name="Page-1">
        <mxGraphModel dx="1560" dy="760" grid="1" gridSize="10" guides="1" tooltips="1" connect="1" arrows="1" fold="1" page="1" pageScale="1" pageWidth="1654" pageHeight="1169" math="0" shadow="0">
            <root>
                <mxCell id="0"/>
                <mxCell id="1" parent="0"/>
                <mxCell id="7" value="" style="rounded=0;whiteSpace=wrap;html=1;fillColor=none;align=left;" parent="1" vertex="1">
                    <mxGeometry x="640" y="220" width="574.62" height="460" as="geometry"/>
                </mxCell>
                <mxCell id="135" value="Stage 1" style="rounded=0;whiteSpace=wrap;html=1;fillColor=#f8cecc;strokeColor=#b85450;opacity=50;align=left;verticalAlign=top;" vertex="1" parent="1">
                    <mxGeometry x="810" y="504" width="390" height="160" as="geometry"/>
                </mxCell>
                <mxCell id="146" value="Stage 2" style="shape=corner;whiteSpace=wrap;html=1;fillColor=#dae8fc;opacity=50;dx=120;dy=150;strokeColor=#6c8ebf;align=left;verticalAlign=top;" vertex="1" parent="1">
                    <mxGeometry x="670" y="280" width="760" height="550" as="geometry"/>
                </mxCell>
                <mxCell id="147" value="Stage 3" style="rounded=0;whiteSpace=wrap;html=1;fillColor=#d5e8d4;strokeColor=#82b366;opacity=50;align=right;verticalAlign=top;" vertex="1" parent="1">
                    <mxGeometry x="340" y="230" width="200" height="220" as="geometry"/>
                </mxCell>
                <mxCell id="48" style="edgeStyle=none;html=1;fontFamily=Helvetica;fontSize=12;fontColor=default;endArrow=classic;endFill=1;" parent="1" edge="1">
                    <mxGeometry relative="1" as="geometry">
                        <mxPoint x="1510" y="250" as="targetPoint"/>
                        <mxPoint x="1430" y="360" as="sourcePoint"/>
                    </mxGeometry>
                </mxCell>
                <mxCell id="49" style="edgeStyle=none;html=1;fontFamily=Helvetica;fontSize=12;fontColor=default;endArrow=classic;endFill=1;" parent="1" target="45" edge="1">
                    <mxGeometry relative="1" as="geometry">
                        <mxPoint x="1430" y="360" as="sourcePoint"/>
                    </mxGeometry>
                </mxCell>
                <mxCell id="50" style="edgeStyle=none;html=1;fontFamily=Helvetica;fontSize=12;fontColor=default;endArrow=classic;endFill=1;" parent="1" target="47" edge="1">
                    <mxGeometry relative="1" as="geometry">
                        <mxPoint x="1430" y="360" as="sourcePoint"/>
                    </mxGeometry>
                </mxCell>
                <mxCell id="44" value="Actor" style="shape=umlActor;verticalLabelPosition=bottom;verticalAlign=top;html=1;outlineConnect=0;fontFamily=Helvetica;fontSize=12;fontColor=default;strokeColor=default;fillColor=default;" parent="1" vertex="1">
                    <mxGeometry x="1510" y="170" width="30" height="60" as="geometry"/>
                </mxCell>
                <mxCell id="45" value="Actor" style="shape=umlActor;verticalLabelPosition=bottom;verticalAlign=top;html=1;outlineConnect=0;fontFamily=Helvetica;fontSize=12;fontColor=default;strokeColor=default;fillColor=default;" parent="1" vertex="1">
                    <mxGeometry x="1570" y="280" width="30" height="60" as="geometry"/>
                </mxCell>
                <mxCell id="47" value="Actor" style="shape=umlActor;verticalLabelPosition=bottom;verticalAlign=top;html=1;outlineConnect=0;fontFamily=Helvetica;fontSize=12;fontColor=default;strokeColor=default;fillColor=default;" parent="1" vertex="1">
                    <mxGeometry x="1500" y="420" width="30" height="60" as="geometry"/>
                </mxCell>
                <mxCell id="119" style="edgeStyle=orthogonalEdgeStyle;html=1;exitX=0.75;exitY=1;exitDx=0;exitDy=0;entryX=0.422;entryY=0;entryDx=0;entryDy=0;strokeColor=default;entryPerimeter=0;" parent="1" source="94" target="99" edge="1">
                    <mxGeometry relative="1" as="geometry">
                        <Array as="points">
                            <mxPoint x="790" y="470"/>
                            <mxPoint x="976" y="470"/>
                        </Array>
                    </mxGeometry>
                </mxCell>
                <mxCell id="120" style="edgeStyle=orthogonalEdgeStyle;html=1;exitX=0.5;exitY=0;exitDx=0;exitDy=0;entryX=1;entryY=1;entryDx=0;entryDy=0;strokeColor=default;" parent="1" source="99" target="94" edge="1">
                    <mxGeometry relative="1" as="geometry">
                        <Array as="points">
                            <mxPoint x="1005" y="440"/>
                            <mxPoint x="820" y="440"/>
                        </Array>
                    </mxGeometry>
                </mxCell>
                <mxCell id="99" value="Proving Pod" style="swimlane;" parent="1" vertex="1">
                    <mxGeometry x="820" y="534" width="370" height="110" as="geometry"/>
                </mxCell>
                <mxCell id="100" value="Zkt Prover 1" style="rounded=1;whiteSpace=wrap;html=1;" parent="99" vertex="1">
                    <mxGeometry x="10" y="35" width="120" height="60" as="geometry"/>
                </mxCell>
                <mxCell id="102" value="Zkt Prover M" style="rounded=1;whiteSpace=wrap;html=1;" parent="99" vertex="1">
                    <mxGeometry x="240" y="35" width="120" height="60" as="geometry"/>
                </mxCell>
                <mxCell id="110" value="..." style="text;html=1;strokeColor=none;fillColor=none;align=center;verticalAlign=middle;whiteSpace=wrap;rounded=0;" parent="99" vertex="1">
                    <mxGeometry x="156.15692307692316" y="50" width="57.69230769230769" height="30" as="geometry"/>
                </mxCell>
                <mxCell id="122" style="edgeStyle=orthogonalEdgeStyle;html=1;entryX=0.5;entryY=0;entryDx=0;entryDy=0;strokeColor=default;" parent="1" source="121" target="94" edge="1">
                    <mxGeometry relative="1" as="geometry"/>
                </mxCell>
                <mxCell id="121" value="Admin" style="shape=umlActor;verticalLabelPosition=bottom;verticalAlign=top;html=1;outlineConnect=0;fontFamily=Helvetica;fontSize=12;fontColor=default;strokeColor=default;fillColor=default;" parent="1" vertex="1">
                    <mxGeometry x="745" y="120" width="30" height="60" as="geometry"/>
                </mxCell>
                <mxCell id="123" style="edgeStyle=none;html=1;exitX=0.25;exitY=1;exitDx=0;exitDy=0;entryX=0.5;entryY=0;entryDx=0;entryDy=0;entryPerimeter=0;" parent="1" source="94" edge="1" target="18">
                    <mxGeometry relative="1" as="geometry">
                        <mxPoint x="730" y="780" as="targetPoint"/>
                    </mxGeometry>
                </mxCell>
                <mxCell id="124" style="edgeStyle=none;html=1;exitX=0.855;exitY=0;exitDx=0;exitDy=4.35;exitPerimeter=0;entryX=0.5;entryY=1;entryDx=0;entryDy=0;" parent="1" source="18" target="94" edge="1">
                    <mxGeometry relative="1" as="geometry"/>
                </mxCell>
                <mxCell id="134" style="edgeStyle=none;html=1;entryX=0;entryY=0.5;entryDx=0;entryDy=0;" parent="1" source="126" target="94" edge="1">
                    <mxGeometry relative="1" as="geometry"/>
                </mxCell>
                <mxCell id="126" value="" style="shape=image;verticalLabelPosition=bottom;labelBackgroundColor=none;verticalAlign=top;aspect=fixed;imageAspect=0;image=data:image/png,iVBORw0KGgoAAAANSUhEUgAAAOEAAADhCAMAAAAJbSJIAAAAh1BMVEX///8AAABTU1NOTk729vb7+/vu7u7z8/Po6Oj19fXi4uKzs7NLS0u4uLjU1NSvr6/j4+N1dXVdXV3a2to/Pz+Pj4+oqKi/v7/T09NqamozMzPKysoJCQmTk5MeHh5+fn6cnJw2NjYqKioUFBRkZGSGhoYbGxt4eHgmJiahoaEQEBA9PT1FRUX2l9uWAAAKLUlEQVR4nO2d53bqMAyACZCEQplhbyh00L7/891yC20kS7bDiGxOvp/FcKTasTWdUqmgoKCgoKCgoKCgoKCgoKCAJIw7rVYnDqXluA+15uorOPHZHdal5bk1zV6AqAyr0kLdkOES6/efwaMs19k7qd+RhrRsN2HP6vdNL5IW72qivk7BIDi0pCW8kppevyMjaRmvom5W0G8Vo62NhsFYWs7LebZSMAhiaUEvRbuLpnmWlvRCElsFg2AoLetlqGt03l18DBdvhIXj5bE4wlqUZ+ePWjv82UpS0ktBU7icpT9sTZGKHm42LahBBa3DsAw/X8hIeQ1wI+2rbkQFDNgKiHglxkVYhS6Hd8c+PCqa1BC4FXm3TIdgjdJjvtJjevnKdz2TtPRtekwzPWb5lK+AVwNOgxozCCxT3w79g3mRlkrA9fDMFQ7nNo8YWMqeuYlRWvYuN2qQHuVZVOoCDckTxV2qadkfcpWWXmx2GmDVJHmKdwPAadGhx4TpMd6dFmABMi58Oz3m3bcTH1htG3oMCBZ7Z7VB95A024DR5p/ljbwnwm6LDmCEbxtNqbQC8m+UpywEnkUwNf1eVK8nSZ2zcCVAUYw+2iqrUMFgrfutpL3rv57+E5XBzJW0Iw4mAptl9oI+5RPC0YeSG+i6ERBQoonPo1Ms42lWxp/tuV+JVnjoz2/NuC/kiRoRPvRWi8V+R0SEuWDimtTvSM+BWofro/q1zQVfyhPrzAxz2jcNX9vJbzmW2bVXeo1+GL/YFy9YifCOSUMf9vwj+MdGfBatstz0ttg2fzFwIfPYuVTBsZWCmvhBbtQ+9RK+00s05quMEEwsNkeqXZ18PcYr1H4J4oBfqVhov7xw0SdqjU573d3XQf37JFdlGNZk5d7rgt0JlaXdO1t84/0cf+ZEKLk6VI7GcptfXjM09jNtaUd4BTsxiSXl9K/oxvb0KmBbxxGnEaZ8g7JmKDpiVL8DzbEjAZAMGkJzjTJaoTlgjA/kQwYNYS0KGUftmYfkjr2GT2C3pJcgXMhuJHXsNYTSM+4DiDizEYJcsdcQbJVcoBgM0m7MuWGvIXCb1swgUHz8cgd5s2Ov4SI9jsu5PYEA3F0kzoq9hiBvyppkfY813D+8ho+/Sr3caeLZ6hVqOJ80OEsEmGR+nBYtrN5JyR2dfoCRZMaHdOnEb2miphviMQthIHlN/ijsxRG12upKEgbyheexgUeQ4WIL4zwnFlhelVXa8px9KZ9TLjz0gQW9p5oqL8Hrb0AxmlCfq95FYhqQFzjcwvKTRQoHzMcDw++KRTGGpLgkx82wSbfSHumldQjxyheLRJlTRylWSUX7+f68kqMh7tQQq+LIpKAF28lHe7gnOlKlplDJ4t8NoRxihgz3lQiVpYabvBSUagl7I6WZ7tuj2XjUGBgybhnQBSXvCZk6+kht+dHQ0MRuCdFOlQ9qg/OhgWUZGbug+fPxTFlKQcV4DnbEhhfS1U6/fBhT+XIZbiVDzdT26E6UydGlSLS5brnifqXQhxWFNVz7p/KFkC866gq6TPgqGk11FjOLqW/U6Iz+TjLxiwtMtE8L5T92oc8br/GedBjIVu2hWqatfr9TTo0vYnbqze7z9H+RwvvXbiheL42cBEMrDDbv1tzAMKrV6zUHSktQm0jwaRqPnlonKmP1oP3RuKWjenA3UoFakF9oHI+M9F0OIl4J3N0tOmGgaSNfbGgEbo4f5i/AM3ErXhRrBBZlWWwccDedu1FXoQM+hhbyou4gRwqcNEANLdbc0/LRNUT3Y/imocW1M9Gr1xpa2JDIUnd/p4GOgEVmDxo1HjTLQjvTwgiDvsjX/SW8FphAOpi/AP8lrhT8akAxDOODGMHxjlTD6kC3Xb6ZxiOH2Y3eST2o98C0+8PRBx9uNUNhUENQEwfTnplJrCWzUbs5SzoOWOY4RKgNYxA5qolyIlab3c9fg35bFg/UVHEYV3OGK2P/swZjxsoVhMFUuH0UFxxs2UM8ZIqJ3v/mfcyUc6wlV6vSkffJzCKn4De9n5VIl5/8/N8k77NRwtSv5PbRUWoO0qxCU6rceBDdj0iVZq/GhY1dsA1TQdVWzkonSn9e10CcuGF3ibKeg1h0P6S2yPmkmfzMZH00IcsxszMX8ya5tNl8OZ2+Kw2EV/AuZgNZ1CTeBrn4qvI+i3uBy/ryQ3sU3BLmIrH7E2dT0VBK/O38LxrNxsdObXWWW6dxlrqgpDTS/UeWf2fNSClilDNuqsZ5OTM9rrSQNwFWwLLFxSxSdVFHLK9v6Z2saM4Kxdcm1NFpKulN8ZcNpEjlpxKqGEyNSKI7U0Szqk+GwqfvCYR7YUOp9aLkh4VzFgG9e9LSnoyfSvqtiozaJfmr8B8ndmCcSFQn/QR9YxeMbNBR8xiMkb/fJB5WVGO0v2A8A7gEmZ8Ek+jEmxUiFI3o8ysLdDFwoTpg27uRCriww5IrBACB5/ldJM7KhX3AXCFAFZhAd5E4Kxf2AbOnuc99wGAO2TzGp8cagueQqxqDV2XdReKsXNjpzGXbwE1wtFWQN/Yagigp5/1ZtUPni72GMAPJxESBZ+ZGWtVewyrwHGjHAVp2blxYn+GOIegmkrYd9LIcyCmWMmkIm0+pJ3FtHCFABg1RKYBanoGqIRy4jPZIlvvakLuF25twg7ELZVTRQknETBd8zgHVfgfbtHVaw+6mA75TzIQyVmzSQUmdVpqniZqprY3SHr62a53zjagm222vu+sTWR3x6v5IG6fpM0vV+hppeZs0MfVJ0g5gdWOroHQLisV1wLT3YNsMLm2w4U0xg4p2l2pIlzJaXXZ9zXXX0k5FaJtgo7cb06Xz8jPIdOUTMIalaaGKnxPW19OwXYf6/Jz0LloqbRSZpt11o7HuEgkmzrRssGUpvEGUG0pX/mR8tqATpS6MreCq0nnTiXQF5hGU5F6CuGCCNyHePwibOK/9ojHacwQ9hWXshyNjTls0Eo1WlXOn86TtwvQdgQuR2C2hiuY3HkedeseJTuczcIqIbeEJFr85cXd8FuAiJYNhsHpUrrbpQkDDM5PfA36utAGWGRBqYPq7gFnGvE7HXUBc5uHfeMwmocGh6NlWY/cuWXCiuBGat+bx3wf8+O90fvz3coMePfYGFxCHc8XctGWTFp45LcB25N1pAbZJJrT9QG88Zq4yBvPsndUGI7pkhg8GAdb5yncDgPjkG49hlsW3jQbnVtTuHXR7EvPqbpdBiYcNyvLFKOC2lpDxSnCsExTyjnCU0I1yimwoAeFp8xxNHCnNveLh64sgUqPl/WCwJ/4+9+0w/MEy86SsYI+wbkL07rT/xbIJ8cXHbeaHeGOloX+H/R81m55f+SzZNVi8t9pvBb8XquHt40ufl+gJbfHPzs+DEDHmCxY8i6/xtMkrIubS1T43pakcjZW2v6cgTTRa/drb/be2fMnkXQjjZDxOYqk3GhQUFBQUFBQUFBQUFBQUFDwm/wDIYH+2LuA7UgAAAABJRU5ErkJggg==;" parent="1" vertex="1">
                    <mxGeometry x="375" y="301" width="120" height="120" as="geometry"/>
                </mxCell>
                <mxCell id="130" value="Ethereum" style="aspect=fixed;html=1;points=[];align=center;image;fontSize=12;image=img/lib/azure2/blockchain/Azure_Blockchain_Service.svg;" parent="1" vertex="1">
                    <mxGeometry x="1295" y="290" width="120" height="120" as="geometry"/>
                </mxCell>
                <mxCell id="131" value="&lt;font style=&quot;font-size: 18px&quot;&gt;Verification&lt;/font&gt;" style="text;html=1;strokeColor=none;fillColor=none;align=center;verticalAlign=middle;whiteSpace=wrap;rounded=0;labelBackgroundColor=none;" parent="1" vertex="1">
                    <mxGeometry x="1290" y="250" width="130" height="30" as="geometry"/>
                </mxCell>
                <mxCell id="133" style="edgeStyle=none;html=1;" parent="1" source="94" edge="1">
                    <mxGeometry relative="1" as="geometry">
                        <mxPoint x="1280" y="360" as="targetPoint"/>
                    </mxGeometry>
                </mxCell>
                <mxCell id="68" value="" style="rounded=0;whiteSpace=wrap;html=1;fillColor=none;align=left;" parent="1" vertex="1">
                    <mxGeometry x="640" y="700" width="574.62" height="140" as="geometry"/>
                </mxCell>
                <mxCell id="69" value="Infrastructure" style="text;strokeColor=none;fillColor=none;html=1;fontSize=24;fontStyle=1;verticalAlign=middle;align=center;fontFamily=Helvetica;fontColor=default;container=1;" parent="1" vertex="1">
                    <mxGeometry x="1037.31" y="700" width="174.62" height="42.54" as="geometry"/>
                </mxCell>
                <mxCell id="18" value="Meta DB" style="shape=cylinder3;whiteSpace=wrap;html=1;boundedLbl=1;backgroundOutline=1;size=15;fontFamily=Helvetica;fontSize=12;fontColor=default;strokeColor=default;fillColor=default;" parent="1" vertex="1">
                    <mxGeometry x="699.9968402251815" y="720" width="66.43485338337366" height="97.46" as="geometry"/>
                </mxCell>
                <mxCell id="11" value="K8S Cluster" style="text;strokeColor=none;fillColor=none;html=1;fontSize=24;fontStyle=1;verticalAlign=middle;align=center;fontFamily=Helvetica;fontColor=default;container=1;" parent="1" vertex="1">
                    <mxGeometry x="1034.62" y="220" width="180.00000000000006" height="42.53968253968254" as="geometry"/>
                </mxCell>
                <mxCell id="94" value="Coordinator" style="rounded=1;whiteSpace=wrap;html=1;" parent="1" vertex="1">
                    <mxGeometry x="700" y="330" width="120.00000000000003" height="60" as="geometry"/>
                </mxCell>
                <mxCell id="127" value="&lt;font style=&quot;font-size: 18px&quot;&gt;Pre-Processing&lt;/font&gt;" style="text;html=1;strokeColor=none;fillColor=none;align=center;verticalAlign=middle;whiteSpace=wrap;rounded=0;labelBackgroundColor=none;" parent="1" vertex="1">
                    <mxGeometry x="370" y="250" width="130" height="30" as="geometry"/>
                </mxCell>
            </root>
        </mxGraphModel>
    </diagram>
</mxfile>